# xmcd
#
# Track frame offsets: 
#        150
#        30066
#        41869
#        60214
#        85311
#        108033
#        118927
#        135311
#        153524
#        181594
#
# Disc length: 2578 seconds
#
# Revision: 2
# Processed by: cddbd v1.5.2PL0 Copyright (c) Steve Scherf et al.
# Submitted via: ExactAudioCopy v0.95b3
#
DISCID=6c0a100a
DTITLE=Smoky Greenwell - Smokin'
DYEAR=1900
DGENRE=
TTITLE0=Goin' Uptown
TTITLE1=Mr. P.C.
TTITLE2=Mercy, Mercy, Mercy
TTITLE3=So Long Storyville
TTITLE4=Back at the Chicken Shack
TTITLE5=C - Jam Blues
TTITLE6=The Real Deal
TTITLE7=Preservation Harp
TTITLE8=Busted
TTITLE9=Smokin'
EXTD=
EXTT0=
EXTT1=
EXTT2=
EXTT3=
EXTT4=
EXTT5=
EXTT6=
EXTT7=
EXTT8=
EXTT9=
PLAYORDER=
